<svg xmlns="http://www.w3.org/2000/svg" width="122" height="122" viewBox="0 0 122 122">
	<g id="Grupo_8" data-name="Grupo 8" transform="translate(0 0.352)">
		<g id="Grupo_6" data-name="Grupo 6">
			<circle id="Elipse_1" data-name="Elipse 1" cx="61" cy="61" r="61" transform="translate(0 -0.352)" fill="#fff" />
		</g>
		<path id="Caminho_1" data-name="Caminho 1" d="M32.6,52.158a2.313,2.313,0,0,1,2.068-1.277H39.3a2.313,2.313,0,0,1,2.192,3.043l-1.3,3.894H43.92a2.313,2.313,0,0,1,1.8,3.756L36.474,73.139a2.313,2.313,0,0,1-4.047-2l1.6-6.378H30.045a2.313,2.313,0,0,1-2.067-3.349ZM61.982,18.63a23.131,23.131,0,0,0-43.936-4.644,16.188,16.188,0,1,0-1.878,32.271h43.94A13.876,13.876,0,0,0,61.982,18.63Z" transform="translate(23.513 23.516)" />
	</g>
</svg>
