<svg xmlns="http://www.w3.org/2000/svg" width="146" height="65" viewBox="0 0 146 65">
	<g id="Grupo_7" data-name="Grupo 7" transform="translate(-132 -11)">
		<g id="Grupo_6" data-name="Grupo 6" transform="translate(132 11)">
			<circle id="Elipse_1" data-name="Elipse 1" cx="32.5" cy="32.5" r="32.5" fill="#fff" />
		</g>
		<path id="Caminho_1" data-name="Caminho 1" d="M17.426,27.874a1.236,1.236,0,0,1,1.1-.682H21a1.236,1.236,0,0,1,1.172,1.626L21.482,30.9h1.992a1.236,1.236,0,0,1,.964,2.007l-4.944,6.18a1.236,1.236,0,0,1-2.163-1.07l.853-3.409H16.059a1.236,1.236,0,0,1-1.1-1.79Zm15.7-17.919A12.362,12.362,0,0,0,9.647,7.474a8.652,8.652,0,1,0-1,17.246H32.126a7.416,7.416,0,0,0,1-14.764Z" transform="translate(144.563 23.568)" />
	</g>
	<text id="Projeto_Águas_Tranquilas" data-name="Projeto 
  Águas 
  Tranquilas" transform="translate(71 21)" font-size="15" font-family="Ubuntu-Bold, Ubuntu" font-weight="700">
		<tspan x="0" y="0">
			Projeto
		</tspan>
		<tspan x="0" y="17">
			Águas
		</tspan>
		<tspan x="0" y="34">
			Tranquilas
		</tspan>
	</text>
</svg>
